<?xml version="1.0" encoding="UTF-8" standalone="no"?><!DOCTYPE svg PUBLIC "-//W3C//DTD SVG 1.1//EN" "http://www.w3.org/Graphics/SVG/1.1/DTD/svg11.dtd"><!-- Generated by graphviz version 2.40.1 (20161225.0304)
 --><!-- Title: G Pages: 1 --><svg xmlns="http://www.w3.org/2000/svg" xmlns:xlink="http://www.w3.org/1999/xlink" width="2650pt" height="772pt" viewBox="0.00 0.00 2650.49 772.00">
<g id="graph0" class="graph" transform="scale(1 1) rotate(0) translate(4 768)">
<title>G</title>
<polygon fill="#ffffff" stroke="transparent" points="-4,4 -4,-768 2646.4948,-768 2646.4948,4 -4,4"/>
<g id="clust1" class="cluster">
<title>cluster_module.alb</title>
<polygon fill="none" stroke="#000000" points="1980.6803,-625 1980.6803,-756 2634.4948,-756 2634.4948,-625 1980.6803,-625"/>
<text text-anchor="middle" x="2307.5876" y="-739.4" font-family="sans-serif" font-size="14.00" fill="#000000">module.alb</text>
</g>
<g id="clust2" class="cluster">
<title>cluster_module.ecs</title>
<polygon fill="none" stroke="#000000" points="1978.7357,-93 1978.7357,-224 2423.4954,-224 2423.4954,-93 1978.7357,-93"/>
<text text-anchor="middle" x="2201.1156" y="-207.4" font-family="sans-serif" font-size="14.00" fill="#000000">module.ecs</text>
</g>
<g id="clust3" class="cluster">
<title>cluster_module.ecs_data</title>
<polygon fill="none" stroke="#000000" points="1621.1612,-147 1621.1612,-224 1876.3114,-224 1876.3114,-147 1621.1612,-147"/>
<text text-anchor="middle" x="1748.7363" y="-207.4" font-family="sans-serif" font-size="14.00" fill="#000000">module.ecs_data</text>
</g>
<g id="clust4" class="cluster">
<title>cluster_module.iam_role</title>
<polygon fill="none" stroke="#000000" points="1637.2983,-8 1637.2983,-85 2198.1278,-85 2198.1278,-8 1637.2983,-8"/>
<text text-anchor="middle" x="1917.7131" y="-68.4" font-family="sans-serif" font-size="14.00" fill="#000000">module.iam_role</text>
</g>
<g id="clust5" class="cluster">
<title>cluster_module.rds</title>
<polygon fill="none" stroke="#000000" points="1657.8853,-232 1657.8853,-309 2151.0871,-309 2151.0871,-232 1657.8853,-232"/>
<text text-anchor="middle" x="1904.4862" y="-292.4" font-family="sans-serif" font-size="14.00" fill="#000000">module.rds</text>
</g>
<g id="clust6" class="cluster">
<title>cluster_module.security_group_alb</title>
<polygon fill="none" stroke="#000000" points="1022.5986,-419 1022.5986,-604 1601.1612,-604 1601.1612,-419 1022.5986,-419"/>
<text text-anchor="middle" x="1311.8799" y="-587.4" font-family="sans-serif" font-size="14.00" fill="#000000">module.security_group_alb</text>
</g>
<g id="clust7" class="cluster">
<title>cluster_module.security_group_ecs</title>
<polygon fill="none" stroke="#000000" points="1632.2366,-486 1632.2366,-617 2254.5016,-617 2254.5016,-486 1632.2366,-486"/>
<text text-anchor="middle" x="1943.3691" y="-600.4" font-family="sans-serif" font-size="14.00" fill="#000000">module.security_group_ecs</text>
</g>
<g id="clust8" class="cluster">
<title>cluster_module.security_group_mysql</title>
<polygon fill="none" stroke="#000000" points="1647.7801,-317 1647.7801,-448 2230.0198,-448 2230.0198,-317 1647.7801,-317"/>
<text text-anchor="middle" x="1938.9" y="-431.4" font-family="sans-serif" font-size="14.00" fill="#000000">module.security_group_mysql</text>
</g>
<g id="clust9" class="cluster">
<title>cluster_module.vpc</title>
<polygon fill="none" stroke="#000000" points="8,-312 8,-517 1002.5986,-517 1002.5986,-312 8,-312"/>
<text text-anchor="middle" x="505.2993" y="-500.4" font-family="sans-serif" font-size="14.00" fill="#000000">module.vpc</text>
</g>
<!-- module.alb.aws_lb.http -->
<g id="node1" class="node">
<title>module.alb.aws_lb.http</title>
<polygon fill="none" stroke="#000000" points="2115.8441,-723 2034.9689,-723 2034.9689,-687 2115.8441,-687 2115.8441,-723"/>
<text text-anchor="middle" x="2075.4065" y="-700.8" font-family="sans-serif" font-size="14.00" fill="#000000">aws_lb.http</text>
</g>
<!-- module.security_group_ecs.aws_security_group.allow_http_ecs -->
<g id="node17" class="node">
<title>module.security_group_ecs.aws_security_group.allow_http_ecs</title>
<polygon fill="none" stroke="#000000" points="1857.2357,-530 1640.2369,-530 1640.2369,-494 1857.2357,-494 1857.2357,-530"/>
<text text-anchor="middle" x="1748.7363" y="-507.8" font-family="sans-serif" font-size="14.00" fill="#000000">aws_security_group.allow_http_ecs</text>
</g>
<!-- module.alb.aws_lb.http&#45;&gt;module.security_group_ecs.aws_security_group.allow_http_ecs -->
<g id="edge1" class="edge">
<title>module.alb.aws_lb.http-&gt;module.security_group_ecs.aws_security_group.allow_http_ecs</title>
<path fill="none" stroke="#000000" d="M2034.7022,-705.8731C1998.4893,-705.0109 1945.1013,-699.6083 1904.3114,-678 1841.6253,-644.7923 1790.3226,-576.4746 1765.2848,-538.6558"/>
<polygon fill="#000000" stroke="#000000" points="1768.1614,-536.6592 1759.7771,-530.182 1762.2922,-540.474 1768.1614,-536.6592"/>
</g>
<!-- module.alb.aws_lb_listener.http -->
<g id="node2" class="node">
<title>module.alb.aws_lb_listener.http</title>
<polygon fill="none" stroke="#000000" points="2413.6424,-696 2284.3546,-696 2284.3546,-660 2413.6424,-660 2413.6424,-696"/>
<text text-anchor="middle" x="2348.9985" y="-673.8" font-family="sans-serif" font-size="14.00" fill="#000000">aws_lb_listener.http</text>
</g>
<!-- module.alb.aws_lb_listener.http&#45;&gt;module.alb.aws_lb.http -->
<g id="edge2" class="edge">
<title>module.alb.aws_lb_listener.http-&gt;module.alb.aws_lb.http</title>
<path fill="none" stroke="#000000" d="M2284.161,-684.3986C2235.7836,-689.1728 2170.6212,-695.6035 2126.0444,-700.0027"/>
<polygon fill="#000000" stroke="#000000" points="2125.6278,-696.5267 2116.0199,-700.992 2126.3153,-703.4929 2125.6278,-696.5267"/>
</g>
<!-- module.alb.aws_lb_target_group.ecs_tg -->
<g id="node4" class="node">
<title>module.alb.aws_lb_target_group.ecs_tg</title>
<polygon fill="none" stroke="#000000" points="2162.3595,-669 1988.4535,-669 1988.4535,-633 2162.3595,-633 2162.3595,-669"/>
<text text-anchor="middle" x="2075.4065" y="-646.8" font-family="sans-serif" font-size="14.00" fill="#000000">aws_lb_target_group.ecs_tg</text>
</g>
<!-- module.alb.aws_lb_listener.http&#45;&gt;module.alb.aws_lb_target_group.ecs_tg -->
<g id="edge3" class="edge">
<title>module.alb.aws_lb_listener.http-&gt;module.alb.aws_lb_target_group.ecs_tg</title>
<path fill="none" stroke="#000000" d="M2284.161,-671.6014C2250.8681,-668.3158 2209.6257,-664.2457 2172.6141,-660.5931"/>
<polygon fill="#000000" stroke="#000000" points="2172.5926,-657.0741 2162.2972,-659.575 2171.9051,-664.0403 2172.5926,-657.0741"/>
</g>
<!-- module.alb.aws_lb_listener_rule.default -->
<g id="node3" class="node">
<title>module.alb.aws_lb_listener_rule.default</title>
<polygon fill="none" stroke="#000000" points="2626.4945,-696 2451.4957,-696 2451.4957,-660 2626.4945,-660 2626.4945,-696"/>
<text text-anchor="middle" x="2538.9951" y="-673.8" font-family="sans-serif" font-size="14.00" fill="#000000">aws_lb_listener_rule.default</text>
</g>
<!-- module.alb.aws_lb_listener_rule.default&#45;&gt;module.alb.aws_lb_listener.http -->
<g id="edge4" class="edge">
<title>module.alb.aws_lb_listener_rule.default-&gt;module.alb.aws_lb_listener.http</title>
<path fill="none" stroke="#000000" d="M2451.2268,-678C2442.043,-678 2432.7685,-678 2423.7494,-678"/>
<polygon fill="#000000" stroke="#000000" points="2423.6935,-674.5001 2413.6935,-678 2423.6935,-681.5001 2423.6935,-674.5001"/>
</g>
<!-- module.vpc.aws_vpc.this -->
<g id="node32" class="node">
<title>module.vpc.aws_vpc.this</title>
<polygon fill="none" stroke="#000000" points="104.5598,-403 16.1464,-403 16.1464,-367 104.5598,-367 104.5598,-403"/>
<text text-anchor="middle" x="60.3531" y="-380.8" font-family="sans-serif" font-size="14.00" fill="#000000">aws_vpc.this</text>
</g>
<!-- module.alb.aws_lb_target_group.ecs_tg&#45;&gt;module.vpc.aws_vpc.this -->
<g id="edge5" class="edge">
<title>module.alb.aws_lb_target_group.ecs_tg-&gt;module.vpc.aws_vpc.this</title>
<path fill="none" stroke="#000000" d="M1988.5621,-647.4391C1865.9042,-642.7245 1634.8967,-635 1437.9953,-635 1437.9953,-635 1437.9953,-635 414.7193,-635 277.5542,-635 245.2056,-581.8489 140.7062,-493 113.3565,-469.7464 89.8978,-435.5141 75.5077,-411.8506"/>
<polygon fill="#000000" stroke="#000000" points="78.3867,-409.8441 70.2686,-403.0362 72.3694,-413.4207 78.3867,-409.8441"/>
</g>
<!-- module.ecs.aws_ecs_cluster.this -->
<g id="node5" class="node">
<title>module.ecs.aws_ecs_cluster.this</title>
<polygon fill="none" stroke="#000000" points="2140.5879,-137 2010.2251,-137 2010.2251,-101 2140.5879,-101 2140.5879,-137"/>
<text text-anchor="middle" x="2075.4065" y="-114.8" font-family="sans-serif" font-size="14.00" fill="#000000">aws_ecs_cluster.this</text>
</g>
<!-- module.ecs.aws_ecs_service.app -->
<g id="node6" class="node">
<title>module.ecs.aws_ecs_service.app</title>
<polygon fill="none" stroke="#000000" points="2415.4923,-191 2282.5047,-191 2282.5047,-155 2415.4923,-155 2415.4923,-191"/>
<text text-anchor="middle" x="2348.9985" y="-168.8" font-family="sans-serif" font-size="14.00" fill="#000000">aws_ecs_service.app</text>
</g>
<!-- module.ecs.aws_ecs_service.app&#45;&gt;module.alb.aws_lb_target_group.ecs_tg -->
<g id="edge6" class="edge">
<title>module.ecs.aws_ecs_service.app-&gt;module.alb.aws_lb_target_group.ecs_tg</title>
<path fill="none" stroke="#000000" d="M2347.8286,-191.1187C2342.5353,-267.2181 2318.2572,-559.8622 2254.5016,-621 2232.7292,-641.8784 2202.2128,-651.3406 2172.5303,-655.0038"/>
<polygon fill="#000000" stroke="#000000" points="2172.1004,-651.5295 2162.5099,-656.0319 2172.8149,-658.4929 2172.1004,-651.5295"/>
</g>
<!-- module.ecs.aws_ecs_service.app&#45;&gt;module.ecs.aws_ecs_cluster.this -->
<g id="edge7" class="edge">
<title>module.ecs.aws_ecs_service.app-&gt;module.ecs.aws_ecs_cluster.this</title>
<path fill="none" stroke="#000000" d="M2290.3172,-154.9686C2278.5267,-151.704 2266.1728,-148.5361 2254.5016,-146 2220.8139,-138.6798 2183.1331,-132.6775 2151.0579,-128.2069"/>
<polygon fill="#000000" stroke="#000000" points="2151.2355,-124.6986 2140.8531,-126.8095 2150.2857,-131.6339 2151.2355,-124.6986"/>
</g>
<!-- module.ecs.aws_ecs_task_definition.app -->
<g id="node7" class="node">
<title>module.ecs.aws_ecs_task_definition.app</title>
<polygon fill="none" stroke="#000000" points="2164.2484,-191 1986.5646,-191 1986.5646,-155 2164.2484,-155 2164.2484,-191"/>
<text text-anchor="middle" x="2075.4065" y="-168.8" font-family="sans-serif" font-size="14.00" fill="#000000">aws_ecs_task_definition.app</text>
</g>
<!-- module.ecs.aws_ecs_service.app&#45;&gt;module.ecs.aws_ecs_task_definition.app -->
<g id="edge8" class="edge">
<title>module.ecs.aws_ecs_service.app-&gt;module.ecs.aws_ecs_task_definition.app</title>
<path fill="none" stroke="#000000" d="M2282.4202,-173C2249.9623,-173 2210.2683,-173 2174.3526,-173"/>
<polygon fill="#000000" stroke="#000000" points="2174.3319,-169.5001 2164.3318,-173 2174.3318,-176.5001 2174.3319,-169.5001"/>
</g>
<!-- module.ecs.aws_ecs_service.app&#45;&gt;module.security_group_ecs.aws_security_group.allow_http_ecs -->
<g id="edge9" class="edge">
<title>module.ecs.aws_ecs_service.app-&gt;module.security_group_ecs.aws_security_group.allow_http_ecs</title>
<path fill="none" stroke="#000000" d="M2345.5118,-191.1109C2334.2712,-247.5061 2297.2228,-418.2171 2254.5016,-452 2193.1902,-500.4835 1981.787,-474.6426 1904.3114,-485 1888.5604,-487.1057 1871.9655,-489.6422 1855.7167,-492.3064"/>
<polygon fill="#000000" stroke="#000000" points="1854.9454,-488.8865 1845.6548,-493.9791 1856.0934,-495.7917 1854.9454,-488.8865"/>
</g>
<!-- module.ecs_data.data.template_file.container_definitions -->
<g id="node8" class="node">
<title>module.ecs_data.data.template_file.container_definitions</title>
<polygon fill="none" stroke="#000000" points="1868.3865,-191 1629.0861,-191 1629.0861,-155 1868.3865,-155 1868.3865,-191"/>
<text text-anchor="middle" x="1748.7363" y="-168.8" font-family="sans-serif" font-size="14.00" fill="#000000">data.template_file.container_definitions</text>
</g>
<!-- module.ecs.aws_ecs_task_definition.app&#45;&gt;module.ecs_data.data.template_file.container_definitions -->
<g id="edge10" class="edge">
<title>module.ecs.aws_ecs_task_definition.app-&gt;module.ecs_data.data.template_file.container_definitions</title>
<path fill="none" stroke="#000000" d="M1986.5739,-173C1953.3299,-173 1914.8454,-173 1878.6488,-173"/>
<polygon fill="#000000" stroke="#000000" points="1878.5064,-169.5001 1868.5064,-173 1878.5063,-176.5001 1878.5064,-169.5001"/>
</g>
<!-- module.iam_role.aws_iam_role.ecs_task_execution -->
<g id="node9" class="node">
<title>module.iam_role.aws_iam_role.ecs_task_execution</title>
<polygon fill="none" stroke="#000000" points="1852.1123,-52 1645.3603,-52 1645.3603,-16 1852.1123,-16 1852.1123,-52"/>
<text text-anchor="middle" x="1748.7363" y="-29.8" font-family="sans-serif" font-size="14.00" fill="#000000">aws_iam_role.ecs_task_execution</text>
</g>
<!-- module.ecs.aws_ecs_task_definition.app&#45;&gt;module.iam_role.aws_iam_role.ecs_task_execution -->
<g id="edge11" class="edge">
<title>module.ecs.aws_ecs_task_definition.app-&gt;module.iam_role.aws_iam_role.ecs_task_execution</title>
<path fill="none" stroke="#000000" d="M1986.6621,-166.9765C1959.5088,-163.0414 1930.0363,-156.5816 1904.3114,-146 1853.9524,-125.2856 1804.4149,-85.299 1775.2198,-59.1367"/>
<polygon fill="#000000" stroke="#000000" points="1777.2935,-56.2916 1767.5409,-52.1517 1772.5832,-61.4698 1777.2935,-56.2916"/>
</g>
<!-- module.iam_role.aws_iam_role_policy.ecs_task_policy -->
<g id="node10" class="node">
<title>module.iam_role.aws_iam_role_policy.ecs_task_policy</title>
<polygon fill="none" stroke="#000000" points="2190.3495,-52 1960.4635,-52 1960.4635,-16 2190.3495,-16 2190.3495,-52"/>
<text text-anchor="middle" x="2075.4065" y="-29.8" font-family="sans-serif" font-size="14.00" fill="#000000">aws_iam_role_policy.ecs_task_policy</text>
</g>
<!-- module.iam_role.aws_iam_role_policy.ecs_task_policy&#45;&gt;module.iam_role.aws_iam_role.ecs_task_execution -->
<g id="edge12" class="edge">
<title>module.iam_role.aws_iam_role_policy.ecs_task_policy-&gt;module.iam_role.aws_iam_role.ecs_task_execution</title>
<path fill="none" stroke="#000000" d="M1960.2348,-34C1928.493,-34 1894.0861,-34 1862.4286,-34"/>
<polygon fill="#000000" stroke="#000000" points="1862.2537,-30.5001 1852.2537,-34 1862.2536,-37.5001 1862.2537,-30.5001"/>
</g>
<!-- module.rds.aws_db_instance.this -->
<g id="node11" class="node">
<title>module.rds.aws_db_instance.this</title>
<polygon fill="none" stroke="#000000" points="2143.2682,-276 2007.5448,-276 2007.5448,-240 2143.2682,-240 2143.2682,-276"/>
<text text-anchor="middle" x="2075.4065" y="-253.8" font-family="sans-serif" font-size="14.00" fill="#000000">aws_db_instance.this</text>
</g>
<!-- module.rds.aws_db_subnet_group.this -->
<g id="node12" class="node">
<title>module.rds.aws_db_subnet_group.this</title>
<polygon fill="none" stroke="#000000" points="1831.4386,-276 1666.034,-276 1666.034,-240 1831.4386,-240 1831.4386,-276"/>
<text text-anchor="middle" x="1748.7363" y="-253.8" font-family="sans-serif" font-size="14.00" fill="#000000">aws_db_subnet_group.this</text>
</g>
<!-- module.rds.aws_db_instance.this&#45;&gt;module.rds.aws_db_subnet_group.this -->
<g id="edge13" class="edge">
<title>module.rds.aws_db_instance.this-&gt;module.rds.aws_db_subnet_group.this</title>
<path fill="none" stroke="#000000" d="M2007.7202,-258C1959.7026,-258 1894.6565,-258 1841.7656,-258"/>
<polygon fill="#000000" stroke="#000000" points="1841.6986,-254.5001 1831.6986,-258 1841.6986,-261.5001 1841.6986,-254.5001"/>
</g>
<!-- module.security_group_mysql.aws_security_group.mysql_sg -->
<g id="node20" class="node">
<title>module.security_group_mysql.aws_security_group.mysql_sg</title>
<polygon fill="none" stroke="#000000" points="1841.6487,-375 1655.8239,-375 1655.8239,-339 1841.6487,-339 1841.6487,-375"/>
<text text-anchor="middle" x="1748.7363" y="-352.8" font-family="sans-serif" font-size="14.00" fill="#000000">aws_security_group.mysql_sg</text>
</g>
<!-- module.rds.aws_db_instance.this&#45;&gt;module.security_group_mysql.aws_security_group.mysql_sg -->
<g id="edge14" class="edge">
<title>module.rds.aws_db_instance.this-&gt;module.security_group_mysql.aws_security_group.mysql_sg</title>
<path fill="none" stroke="#000000" d="M2015.87,-276.043C1959.999,-292.9752 1876.4607,-318.2921 1817.7113,-336.0966"/>
<polygon fill="#000000" stroke="#000000" points="1816.6941,-332.7476 1808.1391,-338.9975 1818.7244,-339.4467 1816.6941,-332.7476"/>
</g>
<!-- module.vpc.aws_subnet.private -->
<g id="node30" class="node">
<title>module.vpc.aws_subnet.private</title>
<polygon fill="none" stroke="#000000" points="476.4063,-356 353.0323,-356 353.0323,-320 476.4063,-320 476.4063,-356"/>
<text text-anchor="middle" x="414.7193" y="-333.8" font-family="sans-serif" font-size="14.00" fill="#000000">aws_subnet.private</text>
</g>
<!-- module.rds.aws_db_subnet_group.this&#45;&gt;module.vpc.aws_subnet.private -->
<g id="edge15" class="edge">
<title>module.rds.aws_db_subnet_group.this-&gt;module.vpc.aws_subnet.private</title>
<path fill="none" stroke="#000000" d="M1666.0034,-268.2089C1548.8368,-281.7609 1327.763,-304 1138.714,-304 1138.714,-304 1138.714,-304 884.9397,-304 743.5272,-304 578.8143,-319.4864 486.6627,-329.5559"/>
<polygon fill="#000000" stroke="#000000" points="486.1662,-326.0893 476.6101,-330.6644 486.9335,-333.0471 486.1662,-326.0893"/>
</g>
<!-- module.security_group_alb.aws_security_group.allow_http_alb -->
<g id="node13" class="node">
<title>module.security_group_alb.aws_security_group.allow_http_alb</title>
<polygon fill="none" stroke="#000000" points="1246.9449,-467 1030.4831,-467 1030.4831,-431 1246.9449,-431 1246.9449,-467"/>
<text text-anchor="middle" x="1138.714" y="-444.8" font-family="sans-serif" font-size="14.00" fill="#000000">aws_security_group.allow_http_alb</text>
</g>
<!-- module.vpc.aws_route_table_association.private -->
<g id="node28" class="node">
<title>module.vpc.aws_route_table_association.private</title>
<polygon fill="none" stroke="#000000" points="994.7577,-421 775.1217,-421 775.1217,-385 994.7577,-385 994.7577,-421"/>
<text text-anchor="middle" x="884.9397" y="-398.8" font-family="sans-serif" font-size="14.00" fill="#000000">aws_route_table_association.private</text>
</g>
<!-- module.security_group_alb.aws_security_group.allow_http_alb&#45;&gt;module.vpc.aws_route_table_association.private -->
<g id="edge16" class="edge">
<title>module.security_group_alb.aws_security_group.allow_http_alb-&gt;module.vpc.aws_route_table_association.private</title>
<path fill="none" stroke="#000000" d="M1039.144,-430.9516C1024.5898,-428.3135 1009.5321,-425.5841 994.7871,-422.9113"/>
<polygon fill="#000000" stroke="#000000" points="995.103,-419.4116 984.6391,-421.0718 993.8544,-426.2994 995.103,-419.4116"/>
</g>
<!-- module.vpc.aws_route_table_association.public -->
<g id="node29" class="node">
<title>module.vpc.aws_route_table_association.public</title>
<polygon fill="none" stroke="#000000" points="739.5026,-425 523.6164,-425 523.6164,-389 739.5026,-389 739.5026,-425"/>
<text text-anchor="middle" x="631.5595" y="-402.8" font-family="sans-serif" font-size="14.00" fill="#000000">aws_route_table_association.public</text>
</g>
<!-- module.security_group_alb.aws_security_group.allow_http_alb&#45;&gt;module.vpc.aws_route_table_association.public -->
<g id="edge17" class="edge">
<title>module.security_group_alb.aws_security_group.allow_http_alb-&gt;module.vpc.aws_route_table_association.public</title>
<path fill="none" stroke="#000000" d="M1030.3383,-446.3518C957.9611,-443.8421 860.7312,-439.0451 775.2808,-430 765.6691,-428.9826 755.7211,-427.7557 745.7519,-426.4047"/>
<polygon fill="#000000" stroke="#000000" points="746.1748,-422.9299 735.7873,-425.0155 745.2082,-429.8629 746.1748,-422.9299"/>
</g>
<!-- module.security_group_alb.aws_security_group_rule.allow_http_inbound_alb -->
<g id="node14" class="node">
<title>module.security_group_alb.aws_security_group_rule.allow_http_inbound_alb</title>
<polygon fill="none" stroke="#000000" points="1586.8825,-517 1289.1081,-517 1289.1081,-481 1586.8825,-481 1586.8825,-517"/>
<text text-anchor="middle" x="1437.9953" y="-494.8" font-family="sans-serif" font-size="14.00" fill="#000000">aws_security_group_rule.allow_http_inbound_alb</text>
</g>
<!-- module.security_group_alb.aws_security_group_rule.allow_http_inbound_alb&#45;&gt;module.security_group_alb.aws_security_group.allow_http_alb -->
<g id="edge18" class="edge">
<title>module.security_group_alb.aws_security_group_rule.allow_http_inbound_alb-&gt;module.security_group_alb.aws_security_group.allow_http_alb</title>
<path fill="none" stroke="#000000" d="M1329.9479,-480.9489C1306.1083,-476.9661 1280.7389,-472.7277 1256.5341,-468.6838"/>
<polygon fill="#000000" stroke="#000000" points="1257.0429,-465.2204 1246.6028,-467.0247 1255.8893,-472.1247 1257.0429,-465.2204"/>
</g>
<!-- module.security_group_alb.aws_security_group_rule.allow_http_outbound_alb -->
<g id="node15" class="node">
<title>module.security_group_alb.aws_security_group_rule.allow_http_outbound_alb</title>
<polygon fill="none" stroke="#000000" points="1590.3825,-463 1285.6081,-463 1285.6081,-427 1590.3825,-427 1590.3825,-463"/>
<text text-anchor="middle" x="1437.9953" y="-440.8" font-family="sans-serif" font-size="14.00" fill="#000000">aws_security_group_rule.allow_http_outbound_alb</text>
</g>
<!-- module.security_group_alb.aws_security_group_rule.allow_http_outbound_alb&#45;&gt;module.security_group_alb.aws_security_group.allow_http_alb -->
<g id="edge19" class="edge">
<title>module.security_group_alb.aws_security_group_rule.allow_http_outbound_alb-&gt;module.security_group_alb.aws_security_group.allow_http_alb</title>
<path fill="none" stroke="#000000" d="M1285.286,-447.041C1275.7614,-447.1683 1266.2533,-447.2954 1256.9162,-447.4202"/>
<polygon fill="#000000" stroke="#000000" points="1256.8112,-443.9212 1246.8589,-447.5546 1256.9048,-450.9206 1256.8112,-443.9212"/>
</g>
<!-- module.security_group_alb.aws_security_group_rule.allow_https_outbound_alb -->
<g id="node16" class="node">
<title>module.security_group_alb.aws_security_group_rule.allow_https_outbound_alb</title>
<polygon fill="none" stroke="#000000" points="1593.3273,-571 1282.6633,-571 1282.6633,-535 1593.3273,-535 1593.3273,-571"/>
<text text-anchor="middle" x="1437.9953" y="-548.8" font-family="sans-serif" font-size="14.00" fill="#000000">aws_security_group_rule.allow_https_outbound_alb</text>
</g>
<!-- module.security_group_alb.aws_security_group_rule.allow_https_outbound_alb&#45;&gt;module.security_group_alb.aws_security_group.allow_http_alb -->
<g id="edge20" class="edge">
<title>module.security_group_alb.aws_security_group_rule.allow_https_outbound_alb-&gt;module.security_group_alb.aws_security_group.allow_http_alb</title>
<path fill="none" stroke="#000000" d="M1313.4446,-534.9648C1302.9811,-532.3543 1292.6542,-529.3816 1282.8294,-526 1244.1037,-512.6708 1203.2211,-489.8857 1174.9313,-472.5497"/>
<polygon fill="#000000" stroke="#000000" points="1176.5491,-469.4343 1166.2075,-467.1315 1172.8558,-475.3808 1176.5491,-469.4343"/>
</g>
<!-- module.security_group_ecs.aws_security_group.allow_http_ecs&#45;&gt;module.security_group_alb.aws_security_group_rule.allow_http_inbound_alb -->
<g id="edge21" class="edge">
<title>module.security_group_ecs.aws_security_group.allow_http_ecs-&gt;module.security_group_alb.aws_security_group_rule.allow_http_inbound_alb</title>
<path fill="none" stroke="#000000" d="M1640.0542,-507.4532C1626.1184,-506.8702 1611.6303,-506.2641 1597.0985,-505.6562"/>
<polygon fill="#000000" stroke="#000000" points="1597.175,-502.1564 1587.0374,-505.2352 1596.8823,-509.1503 1597.175,-502.1564"/>
</g>
<!-- module.security_group_ecs.aws_security_group.allow_http_ecs&#45;&gt;module.security_group_alb.aws_security_group_rule.allow_http_outbound_alb -->
<g id="edge22" class="edge">
<title>module.security_group_ecs.aws_security_group.allow_http_ecs-&gt;module.security_group_alb.aws_security_group_rule.allow_http_outbound_alb</title>
<path fill="none" stroke="#000000" d="M1687.6863,-493.9702C1661.2361,-486.5446 1629.8224,-478.2391 1601.1612,-472 1589.7636,-469.5189 1577.8744,-467.1454 1565.9367,-464.9077"/>
<polygon fill="#000000" stroke="#000000" points="1566.3758,-461.4298 1555.9073,-463.0606 1565.1079,-468.314 1566.3758,-461.4298"/>
</g>
<!-- module.security_group_ecs.aws_security_group.allow_http_ecs&#45;&gt;module.security_group_alb.aws_security_group_rule.allow_https_outbound_alb -->
<g id="edge23" class="edge">
<title>module.security_group_ecs.aws_security_group.allow_http_ecs-&gt;module.security_group_alb.aws_security_group_rule.allow_https_outbound_alb</title>
<path fill="none" stroke="#000000" d="M1640.0542,-526.3398C1622.1033,-528.7083 1603.2358,-531.1977 1584.5393,-533.6646"/>
<polygon fill="#000000" stroke="#000000" points="1583.9378,-530.2135 1574.4816,-534.9916 1584.8535,-537.1534 1583.9378,-530.2135"/>
</g>
<!-- module.security_group_ecs.aws_security_group_rule.allow_http -->
<g id="node18" class="node">
<title>module.security_group_ecs.aws_security_group_rule.allow_http</title>
<polygon fill="none" stroke="#000000" points="2185.7979,-530 1965.0151,-530 1965.0151,-494 2185.7979,-494 2185.7979,-530"/>
<text text-anchor="middle" x="2075.4065" y="-507.8" font-family="sans-serif" font-size="14.00" fill="#000000">aws_security_group_rule.allow_http</text>
</g>
<!-- module.security_group_ecs.aws_security_group_rule.allow_http&#45;&gt;module.security_group_ecs.aws_security_group.allow_http_ecs -->
<g id="edge24" class="edge">
<title>module.security_group_ecs.aws_security_group_rule.allow_http-&gt;module.security_group_ecs.aws_security_group.allow_http_ecs</title>
<path fill="none" stroke="#000000" d="M1964.8109,-512C1933.4944,-512 1899.2805,-512 1867.5035,-512"/>
<polygon fill="#000000" stroke="#000000" points="1867.2788,-508.5001 1857.2787,-512 1867.2787,-515.5001 1867.2788,-508.5001"/>
</g>
<!-- module.security_group_ecs.aws_vpc_security_group_egress_rule.allow_all_outbound -->
<g id="node19" class="node">
<title>module.security_group_ecs.aws_vpc_security_group_egress_rule.allow_all_outbound</title>
<polygon fill="none" stroke="#000000" points="2246.5968,-584 1904.2162,-584 1904.2162,-548 2246.5968,-548 2246.5968,-584"/>
<text text-anchor="middle" x="2075.4065" y="-561.8" font-family="sans-serif" font-size="14.00" fill="#000000">aws_vpc_security_group_egress_rule.allow_all_outbound</text>
</g>
<!-- module.security_group_ecs.aws_vpc_security_group_egress_rule.allow_all_outbound&#45;&gt;module.security_group_ecs.aws_security_group.allow_http_ecs -->
<g id="edge25" class="edge">
<title>module.security_group_ecs.aws_vpc_security_group_egress_rule.allow_all_outbound-&gt;module.security_group_ecs.aws_security_group.allow_http_ecs</title>
<path fill="none" stroke="#000000" d="M1959.4041,-547.9401C1940.9667,-544.9987 1922.1117,-541.949 1904.3114,-539 1890.358,-536.6884 1875.7098,-534.2118 1861.2137,-531.7307"/>
<polygon fill="#000000" stroke="#000000" points="1861.6605,-528.2563 1851.2125,-530.0143 1860.4764,-535.1555 1861.6605,-528.2563"/>
</g>
<!-- module.security_group_mysql.aws_security_group.mysql_sg&#45;&gt;module.vpc.aws_route_table_association.private -->
<g id="edge26" class="edge">
<title>module.security_group_mysql.aws_security_group.mysql_sg-&gt;module.vpc.aws_route_table_association.private</title>
<path fill="none" stroke="#000000" d="M1655.507,-366.5558C1637.4884,-368.2013 1618.7475,-369.7737 1601.1612,-371 1391.6908,-385.6062 1147.2668,-394.8583 1004.9232,-399.4699"/>
<polygon fill="#000000" stroke="#000000" points="1004.735,-395.974 994.8528,-399.7939 1004.9602,-402.9704 1004.735,-395.974"/>
</g>
<!-- module.security_group_mysql.aws_security_group.mysql_sg&#45;&gt;module.vpc.aws_route_table_association.public -->
<g id="edge27" class="edge">
<title>module.security_group_mysql.aws_security_group.mysql_sg-&gt;module.vpc.aws_route_table_association.public</title>
<path fill="none" stroke="#000000" d="M1655.7214,-352.877C1482.0209,-346.4927 1096.808,-338.5418 775.2808,-376 754.5817,-378.4115 732.4679,-382.4376 711.947,-386.8034"/>
<polygon fill="#000000" stroke="#000000" points="711.0395,-383.4189 702.0143,-388.9683 712.5303,-390.2584 711.0395,-383.4189"/>
</g>
<!-- module.security_group_mysql.aws_security_group_rule.allow_mysql_outbound -->
<g id="node21" class="node">
<title>module.security_group_mysql.aws_security_group_rule.allow_mysql_outbound</title>
<polygon fill="none" stroke="#000000" points="2222.1332,-361 1928.6798,-361 1928.6798,-325 2222.1332,-325 2222.1332,-361"/>
<text text-anchor="middle" x="2075.4065" y="-338.8" font-family="sans-serif" font-size="14.00" fill="#000000">aws_security_group_rule.allow_mysql_outbound</text>
</g>
<!-- module.security_group_mysql.aws_security_group_rule.allow_mysql_outbound&#45;&gt;module.security_group_mysql.aws_security_group.mysql_sg -->
<g id="edge28" class="edge">
<title>module.security_group_mysql.aws_security_group_rule.allow_mysql_outbound-&gt;module.security_group_mysql.aws_security_group.mysql_sg</title>
<path fill="none" stroke="#000000" d="M1928.3172,-349.3038C1902.5338,-350.4088 1876.205,-351.5371 1851.9352,-352.5772"/>
<polygon fill="#000000" stroke="#000000" points="1851.5084,-349.0922 1841.6674,-353.0173 1851.8082,-356.0858 1851.5084,-349.0922"/>
</g>
<!-- module.security_group_mysql.aws_security_group_rule.allow_mysql_rds -->
<g id="node22" class="node">
<title>module.security_group_mysql.aws_security_group_rule.allow_mysql_rds</title>
<polygon fill="none" stroke="#000000" points="2204.3481,-415 1946.4649,-415 1946.4649,-379 2204.3481,-379 2204.3481,-415"/>
<text text-anchor="middle" x="2075.4065" y="-392.8" font-family="sans-serif" font-size="14.00" fill="#000000">aws_security_group_rule.allow_mysql_rds</text>
</g>
<!-- module.security_group_mysql.aws_security_group_rule.allow_mysql_rds&#45;&gt;module.security_group_ecs.aws_security_group.allow_http_ecs -->
<g id="edge29" class="edge">
<title>module.security_group_mysql.aws_security_group_rule.allow_mysql_rds-&gt;module.security_group_ecs.aws_security_group.allow_http_ecs</title>
<path fill="none" stroke="#000000" d="M2016.5311,-415.0146C1983.4067,-425.3777 1941.38,-438.9059 1904.3114,-452 1870.3218,-464.0064 1832.5889,-478.5288 1802.7964,-490.2787"/>
<polygon fill="#000000" stroke="#000000" points="1801.4284,-487.0559 1793.4174,-493.9895 1804.0037,-493.565 1801.4284,-487.0559"/>
</g>
<!-- module.security_group_mysql.aws_security_group_rule.allow_mysql_rds&#45;&gt;module.security_group_mysql.aws_security_group.mysql_sg -->
<g id="edge30" class="edge">
<title>module.security_group_mysql.aws_security_group_rule.allow_mysql_rds-&gt;module.security_group_mysql.aws_security_group.mysql_sg</title>
<path fill="none" stroke="#000000" d="M1946.2978,-381.1909C1914.8933,-377.3455 1881.7213,-373.2837 1851.7125,-369.6092"/>
<polygon fill="#000000" stroke="#000000" points="1852.0153,-366.1202 1841.664,-368.3788 1851.1645,-373.0683 1852.0153,-366.1202"/>
</g>
<!-- module.vpc.aws_eip.nat -->
<g id="node23" class="node">
<title>module.vpc.aws_eip.nat</title>
<polygon fill="none" stroke="#000000" points="264.6309,-484 181.6757,-484 181.6757,-448 264.6309,-448 264.6309,-484"/>
<text text-anchor="middle" x="223.1533" y="-461.8" font-family="sans-serif" font-size="14.00" fill="#000000">aws_eip.nat</text>
</g>
<!-- module.vpc.aws_internet_gateway.this -->
<g id="node24" class="node">
<title>module.vpc.aws_internet_gateway.this</title>
<polygon fill="none" stroke="#000000" points="305.5475,-376 140.7591,-376 140.7591,-340 305.5475,-340 305.5475,-376"/>
<text text-anchor="middle" x="223.1533" y="-353.8" font-family="sans-serif" font-size="14.00" fill="#000000">aws_internet_gateway.this</text>
</g>
<!-- module.vpc.aws_internet_gateway.this&#45;&gt;module.vpc.aws_vpc.this -->
<g id="edge31" class="edge">
<title>module.vpc.aws_internet_gateway.this-&gt;module.vpc.aws_vpc.this</title>
<path fill="none" stroke="#000000" d="M140.3224,-371.7373C131.7065,-373.1662 123.1119,-374.5916 114.925,-375.9494"/>
<polygon fill="#000000" stroke="#000000" points="114.0946,-372.5392 104.802,-377.6283 115.2399,-379.4449 114.0946,-372.5392"/>
</g>
<!-- module.vpc.aws_nat_gateway.this -->
<g id="node25" class="node">
<title>module.vpc.aws_nat_gateway.this</title>
<polygon fill="none" stroke="#000000" points="484.4573,-484 344.9813,-484 344.9813,-448 484.4573,-448 484.4573,-484"/>
<text text-anchor="middle" x="414.7193" y="-461.8" font-family="sans-serif" font-size="14.00" fill="#000000">aws_nat_gateway.this</text>
</g>
<!-- module.vpc.aws_nat_gateway.this&#45;&gt;module.vpc.aws_eip.nat -->
<g id="edge32" class="edge">
<title>module.vpc.aws_nat_gateway.this-&gt;module.vpc.aws_eip.nat</title>
<path fill="none" stroke="#000000" d="M345.0177,-466C321.8499,-466 296.4785,-466 274.9125,-466"/>
<polygon fill="#000000" stroke="#000000" points="274.6576,-462.5001 264.6576,-466 274.6575,-469.5001 274.6576,-462.5001"/>
</g>
<!-- module.vpc.aws_subnet.public -->
<g id="node31" class="node">
<title>module.vpc.aws_subnet.public</title>
<polygon fill="none" stroke="#000000" points="282.9648,-430 163.3418,-430 163.3418,-394 282.9648,-394 282.9648,-430"/>
<text text-anchor="middle" x="223.1533" y="-407.8" font-family="sans-serif" font-size="14.00" fill="#000000">aws_subnet.public</text>
</g>
<!-- module.vpc.aws_nat_gateway.this&#45;&gt;module.vpc.aws_subnet.public -->
<g id="edge33" class="edge">
<title>module.vpc.aws_nat_gateway.this-&gt;module.vpc.aws_subnet.public</title>
<path fill="none" stroke="#000000" d="M350.6643,-447.9437C332.1396,-442.7218 311.8299,-436.9968 292.9726,-431.6812"/>
<polygon fill="#000000" stroke="#000000" points="293.8354,-428.2881 283.2609,-428.9436 291.9362,-435.0255 293.8354,-428.2881"/>
</g>
<!-- module.vpc.aws_route_table.private -->
<g id="node26" class="node">
<title>module.vpc.aws_route_table.private</title>
<polygon fill="none" stroke="#000000" points="706.6725,-480 556.4465,-480 556.4465,-444 706.6725,-444 706.6725,-480"/>
<text text-anchor="middle" x="631.5595" y="-457.8" font-family="sans-serif" font-size="14.00" fill="#000000">aws_route_table.private</text>
</g>
<!-- module.vpc.aws_route_table.private&#45;&gt;module.vpc.aws_nat_gateway.this -->
<g id="edge34" class="edge">
<title>module.vpc.aws_route_table.private-&gt;module.vpc.aws_nat_gateway.this</title>
<path fill="none" stroke="#000000" d="M556.3279,-463.3878C536.3412,-463.7565 514.6893,-464.1559 494.4704,-464.5288"/>
<polygon fill="#000000" stroke="#000000" points="494.2939,-461.0314 484.3602,-464.7154 494.4231,-468.0302 494.2939,-461.0314"/>
</g>
<!-- module.vpc.aws_route_table.public -->
<g id="node27" class="node">
<title>module.vpc.aws_route_table.public</title>
<polygon fill="none" stroke="#000000" points="487.9573,-410 341.4813,-410 341.4813,-374 487.9573,-374 487.9573,-410"/>
<text text-anchor="middle" x="414.7193" y="-387.8" font-family="sans-serif" font-size="14.00" fill="#000000">aws_route_table.public</text>
</g>
<!-- module.vpc.aws_route_table.public&#45;&gt;module.vpc.aws_internet_gateway.this -->
<g id="edge35" class="edge">
<title>module.vpc.aws_route_table.public-&gt;module.vpc.aws_internet_gateway.this</title>
<path fill="none" stroke="#000000" d="M341.4764,-379.0005C333.0496,-377.5049 324.3759,-375.9654 315.737,-374.4322"/>
<polygon fill="#000000" stroke="#000000" points="316.0863,-370.9395 305.6285,-372.6381 314.863,-377.8318 316.0863,-370.9395"/>
</g>
<!-- module.vpc.aws_route_table_association.private&#45;&gt;module.vpc.aws_route_table.private -->
<g id="edge36" class="edge">
<title>module.vpc.aws_route_table_association.private-&gt;module.vpc.aws_route_table.private</title>
<path fill="none" stroke="#000000" d="M807.5405,-421.0225C778.7744,-427.7208 745.9915,-435.3543 716.5803,-442.2028"/>
<polygon fill="#000000" stroke="#000000" points="715.6917,-438.816 706.746,-444.4927 717.2793,-445.6336 715.6917,-438.816"/>
</g>
<!-- module.vpc.aws_route_table_association.private&#45;&gt;module.vpc.aws_subnet.private -->
<g id="edge37" class="edge">
<title>module.vpc.aws_route_table_association.private-&gt;module.vpc.aws_subnet.private</title>
<path fill="none" stroke="#000000" d="M775.232,-385.3408C763.1085,-383.4894 750.9378,-381.6742 739.2808,-380 652.6648,-367.5597 552.7981,-354.8867 486.9728,-346.7635"/>
<polygon fill="#000000" stroke="#000000" points="487.0605,-343.248 476.7077,-345.4996 486.205,-350.1955 487.0605,-343.248"/>
</g>
<!-- module.vpc.aws_route_table_association.public&#45;&gt;module.vpc.aws_route_table.public -->
<g id="edge38" class="edge">
<title>module.vpc.aws_route_table_association.public-&gt;module.vpc.aws_route_table.public</title>
<path fill="none" stroke="#000000" d="M523.7747,-399.5439C515.1601,-398.948 506.5402,-398.3517 498.1325,-397.7701"/>
<polygon fill="#000000" stroke="#000000" points="498.2146,-394.2675 487.9968,-397.069 497.7314,-401.2509 498.2146,-394.2675"/>
</g>
<!-- module.vpc.aws_route_table_association.public&#45;&gt;module.vpc.aws_subnet.public -->
<g id="edge39" class="edge">
<title>module.vpc.aws_route_table_association.public-&gt;module.vpc.aws_subnet.public</title>
<path fill="none" stroke="#000000" d="M523.7129,-416.9821C511.6196,-417.8106 499.471,-418.5152 487.8382,-419 422.9,-421.7063 406.5667,-420.918 341.6004,-419 325.9764,-418.5387 309.2084,-417.7359 293.347,-416.8346"/>
<polygon fill="#000000" stroke="#000000" points="293.2642,-413.3237 283.076,-416.2306 292.8532,-420.3117 293.2642,-413.3237"/>
</g>
<!-- module.vpc.aws_subnet.private&#45;&gt;module.vpc.aws_vpc.this -->
<g id="edge40" class="edge">
<title>module.vpc.aws_subnet.private-&gt;module.vpc.aws_vpc.this</title>
<path fill="none" stroke="#000000" d="M352.8185,-325.4622C296.2782,-316.5516 211.0342,-309.564 140.7062,-331 121.4874,-336.8579 102.6966,-349.0194 88.1247,-360.3202"/>
<polygon fill="#000000" stroke="#000000" points="85.65,-357.8195 80.0612,-366.8204 90.0432,-363.2693 85.65,-357.8195"/>
</g>
<!-- module.vpc.aws_subnet.public&#45;&gt;module.vpc.aws_vpc.this -->
<g id="edge41" class="edge">
<title>module.vpc.aws_subnet.public-&gt;module.vpc.aws_vpc.this</title>
<path fill="none" stroke="#000000" d="M162.9951,-402.0229C147.1688,-399.3982 130.1906,-396.5824 114.6899,-394.0116"/>
<polygon fill="#000000" stroke="#000000" points="115.1819,-390.5455 104.744,-392.3621 114.0366,-397.4512 115.1819,-390.5455"/>
</g>
</g>
</svg>